# xmcd
#
# Track frame offsets:
#	150
#	16659
#	31299
#	45886
#	65782
#	83117
#	98847
#	116179
#	129794
#	146466
#	163588
#	182291
#	196084
#	214997
#	232809
#	247288
#	267782
#	285117
#
# Disc length: 3993 seconds
#
# Revision: 2
# Processed by: cddbd v1.5.2PL0 Copyright (c) Steve Scherf et al.
# Submitted via: audiograbber 1.83.01
#
DISCID=e70f9712
DTITLE=Various Artist - Promo Only Country Radio July 2012
DYEAR=2012
DGENRE=Country
TTITLE0=Lee Brice - Hard To Love
TTITLE1=Blake Shelton - Over
TTITLE2=Jake Owen - The One That Got Away
TTITLE3=Rascal Flatts - Come Wake Me Up
TTITLE4=Jessie James - Military Man
TTITLE5=The Mavericks - Born To Be Blue
TTITLE6=Rich O'Toole - Drunk Girl
TTITLE7=Gwen Sebastian - Met Him In A Motel Room
TTITLE8=Casey James - Cryin' On A Suitcase
TTITLE9=Jason Sturgeon - Time Bomb (Promo Only Clean Edit)
TTITLE10=Kenny Chesney - Come Over
TTITLE11=Bucky Covington - I Wanna Be That Feeling
TTITLE12=Paul Thorn - Take My Love With You
TTITLE13=Rodney Atkins - Just Wanna Rock N Roll
TTITLE14=Leftover Salmon - Gulf Of Mexico
TTITLE15=Chelle Rose - I Need You
TTITLE16=Miranda Lambert - Over You (Heart and Soul Mix)
TTITLE17=Kenny Chesney and Tim McGraw - Feel Like A Rock Star (Promo Only Clean E
TTITLE17=dit - Acoustic Version)
EXTD=
EXTT0=
EXTT1=
EXTT2=
EXTT3=
EXTT4=
EXTT5=
EXTT6=
EXTT7=
EXTT8=
EXTT9=
EXTT10=
EXTT11=
EXTT12=
EXTT13=
EXTT14=
EXTT15=
EXTT16=
EXTT17=
PLAYORDER=
